<svg width="184" height="34" viewBox="0 0 184 34" fill="none" xmlns="http://www.w3.org/2000/svg">
<path d="M42.3532 16.4745L32.0364 6.15771C31.3968 5.51807 30.3599 5.51807 29.7203 6.15771L28.1831 7.69491L36.9627 16.4745C37.6023 17.1141 37.6023 18.151 36.9627 18.7906L28.1831 27.5702L29.7203 29.1074C30.3599 29.747 31.3968 29.747 32.0364 29.1074L42.3532 18.7906C42.9928 18.151 42.9928 17.1141 42.3532 16.4745Z" fill="#87BEFF"/>
<path d="M33.2274 16.4745L22.9158 6.15771C22.2762 5.51807 21.2393 5.51807 20.5997 6.15771L19.0625 7.69491L27.8421 16.4745C28.4817 17.1141 28.4817 18.151 27.8421 18.7906L19.0625 27.5702L20.5997 29.1074C21.2393 29.747 22.2762 29.747 22.9158 29.1074L33.2326 18.7906C33.8722 18.151 33.8722 17.1141 33.2326 16.4745H33.2274Z" fill="#FF6868"/>
<path d="M24.1065 16.4751L13.7876 6.15627C13.149 5.51768 12.1137 5.51768 11.4751 6.15627L1.15621 16.4751C0.517621 17.1137 0.517621 18.1491 1.15621 18.7877L11.4751 29.1065C12.1137 29.7451 13.149 29.7451 13.7876 29.1065L24.1065 18.7877C24.7451 18.1491 24.7451 17.1137 24.1065 16.4751Z" fill="#FFD94F"/>
<path d="M68.3697 10.6406C66.3012 10.6406 64.8465 11.6207 64.1037 12.7865C63.2577 11.435 61.7979 10.6406 60.0492 10.6406C58.4604 10.6406 57.243 11.2235 56.4177 12.0179V10.9604H53.9004V24.3104H56.5518V15.9641C56.5518 14.4527 57.5835 12.9413 59.652 12.9413C61.2924 12.9413 62.2209 14.2154 62.2209 16.1446V24.3052H64.8723V15.9641C64.8723 14.4527 65.904 12.9413 67.9725 12.9413C69.6128 12.9413 70.5414 14.2154 70.5414 16.1446V24.3052H73.1928V15.6185C73.1928 12.6266 71.1243 10.6406 68.3697 10.6406Z" fill="white"/>
<path d="M82.7078 10.6406C78.9216 10.6406 75.8472 13.4468 75.8472 17.6354C75.8472 21.824 78.9216 24.6302 82.7078 24.6302C86.4941 24.6302 89.5685 21.824 89.5685 17.6354C89.5685 13.4468 86.4941 10.6406 82.7078 10.6406ZM82.7078 22.3502C80.4536 22.3502 78.4418 20.5241 78.4934 17.6354C78.4934 14.7467 80.5052 12.9206 82.7078 12.9206C84.9105 12.9206 86.9222 14.7467 86.9222 17.6354C86.9222 20.5241 84.9105 22.3502 82.7078 22.3502Z" fill="white"/>
<path d="M103.827 10.955H100.438L95.0059 16.7582V5.76562H92.3545V24.31H95.0059V20.0956L97.3633 17.6609L101.655 24.31H104.57L99.1378 15.8296L103.827 10.955Z" fill="white"/>
<path d="M111.962 10.6406C108.176 10.6406 105.102 13.4468 105.102 17.6354C105.102 21.824 108.176 24.6302 111.962 24.6302C115.748 24.6302 118.823 21.824 118.823 17.6354C118.823 13.4468 115.748 10.6406 111.962 10.6406ZM111.962 22.3502C109.708 22.3502 107.696 20.5241 107.748 17.6354C107.748 14.7467 109.76 12.9206 111.962 12.9206C114.165 12.9206 116.177 14.7467 116.177 17.6354C116.177 20.5241 114.165 22.3502 111.962 22.3502Z" fill="white"/>
<path d="M122.247 24.6246C122.247 26.6673 120.973 28.3335 118.698 27.9878V30.2936C122.458 30.9539 124.898 28.1477 124.898 24.1448V10.9548H122.247V24.6246Z" fill="white"/>
<path d="M123.569 5.23462C122.511 5.23462 121.717 6.02901 121.717 7.06069C121.717 8.09237 122.511 8.91771 123.569 8.91771C124.626 8.91771 125.395 8.12332 125.395 7.06069C125.395 5.99806 124.6 5.23462 123.569 5.23462Z" fill="white"/>
<path d="M138.62 12.2036C137.588 11.1977 136.211 10.6406 134.514 10.6406C130.727 10.6406 127.653 13.4468 127.653 17.6354C127.653 21.824 130.727 24.6302 134.514 24.6302C136.211 24.6302 137.588 24.0731 138.62 23.0672V24.3104H141.271V10.9553H138.62V12.1985V12.2036ZM134.514 22.3502C132.259 22.3502 130.248 20.5241 130.299 17.6354C130.299 14.7467 132.311 12.9206 134.514 12.9206C136.716 12.9206 138.62 14.7467 138.62 17.6354C138.62 20.5241 136.711 22.3502 134.514 22.3502Z" fill="white"/>
<path d="M159.182 10.6406C157.114 10.6406 155.659 11.6207 154.916 12.7865C154.065 11.435 152.61 10.6406 150.862 10.6406C149.273 10.6406 148.05 11.2235 147.23 12.0179V10.9604H144.713V24.3104H147.359V15.9641C147.359 14.4527 148.396 12.9413 150.459 12.9413C152.1 12.9413 153.028 14.2154 153.028 16.1446V24.3052H155.68V15.9641C155.68 14.4527 156.711 12.9413 158.78 12.9413C160.42 12.9413 161.349 14.2154 161.349 16.1446V24.3052H164V15.6185C164 12.6266 161.932 10.6406 159.177 10.6406H159.182Z" fill="white"/>
</svg>
